<?xml version="1.0" encoding="UTF-8"?>
<svg id="Layer_1" xmlns="http://www.w3.org/2000/svg" version="1.1" viewBox="0 0 654.4 275.9">
  <!-- Generator: Adobe Illustrator 29.1.0, SVG Export Plug-In . SVG Version: 2.1.0 Build 142)  -->
  <defs>
    <style>
      .st0 {
        font-family: PlusJakartaSans-Medium, 'Plus Jakarta Sans';
        font-size: 43.4px;
        font-weight: 500;
        letter-spacing: .2em;
      }

      .st0, .st1 {
        fill: #fff;
      }

      .st2 {
        fill: #ffb000;
      }
    </style>
  </defs>
  <text class="st0" transform="translate(197.8 249.9)"><tspan x="0" y="0">JEGNIT AWARD</tspan></text>
  <g>
    <rect class="st1" x="208.8" y="27.5" width="99.9" height="32.5"/>
    <path class="st1" d="M243.3,148h25.2c22,0,40-17.9,40-40s-17.9-40-40-40h-17.7c-22,0-40,17.9-40,40v48.6h-13v32.5h192.6v-32.5h-147.1v-8.6ZM243.3,108.1c0-4.1,3.4-7.5,7.5-7.5h17.7c4.2,0,7.5,3.4,7.5,7.5s-3.4,7.5-7.5,7.5h-25.2v-7.5Z"/>
    <path class="st1" d="M395,27.3h-38.4c-21.2,0-38.4,17.2-38.4,38.4v40.8c0,21.2,17.2,38.4,38.4,38.4s38.4-17.2,38.4-38.4v-46.6h10.9v128.1h32.5V27.5h-43.3v-.2ZM362.5,106.5c0,3.3-2.7,6-6,6s-6-2.7-6-6v-40.8c0-3.3,2.7-6,6-6h6v46.8Z"/>
    <path class="st1" d="M509.3,155.6c0-18.1-11.2-33.7-27-40.1V26.8h-32.5v118h16.2c6,0,10.8,4.9,10.8,10.8v33.5h80.5v-32.5h-48.1v-1Z"/>
    <polygon class="st1" points="634.4 112.4 603.6 112.4 603.6 68.1 530 68.1 530 26.8 497.5 26.8 497.5 100.5 571.2 100.5 571.2 112.4 522.7 112.4 522.7 144.8 571.2 144.8 571.2 188.1 603.6 188.1 603.6 144.8 634.4 144.8 634.4 112.4"/>
  </g>
  <path class="st2" d="M30,27.3v226.4h39.2c.2-1.3.3-2.5.6-3.8.8-4.2,1.9-8.3,3.1-12.7,1.9-7.1,3.9-14.4,4.5-22.2.5-5.8.1-11.6-1-17.3-3.9-19.3,3.1-39.1,18.9-51,2.7-2.1,5-3.9,6.6-5.4,2.7,2.9,5.5,5.6,8.4,8.1l1.3,1.2c3.6,3,7,5.9,8.2,9.3,1.6,4.5-.3,10.4-5.6,17.8l-1.8,2.6c-4.6,6.2-9.8,13.3-10.5,22-.7,7.4,1.7,15,7.4,23.4,1.7,2.4,3.4,4.7,5.2,7,2.5,3.3,4.9,6.4,6.9,9.7,1.9,3.4,3.3,7.2,4.2,11.1h43.8V27.3H30ZM106.5,118.5v.2c-.8,4.9-2.4,9.6-4.8,13.9-3.4-4.7-6.4-9.7-8.9-14.8-2.4-4.9-4.8-10.6-4.1-16,.5-3.9,3.4-8.4,7.2-8.8h.5c2.3,0,5,1.4,6.8,3.7,1.9,2.5,3.1,5.8,3.7,10.3.5,3.9.4,7.8-.3,11.5ZM145.3,93.3c-3.5,10.1-14,17.8-26.7,19.9.1-2.5,0-5.1-.3-7.7-.9-6.6-2.9-11.9-6-15.9-4.3-5.6-10.9-8.7-17.4-8.1-8.8.8-16.3,8.9-17.5,18.9-.6,5,.3,9.8,1.8,14.3-6.6-1.2-13-6.1-16-12.7-3.5-7.6-3-17.6,1.4-26,4.1-7.7,11.4-14.4,20.7-19,9.6-4.8,20.2-6.6,29.8-5.2,10.2,1.5,19.5,6.8,25.2,14.4,0,.2,9.7,13.5,5,27.1Z"/>
</svg>